<?xml version="1.0" encoding="UTF-8" standalone="no"?>
<!DOCTYPE svg PUBLIC "-//W3C//DTD SVG 1.1//EN"
 "http://www.w3.org/Graphics/SVG/1.1/DTD/svg11.dtd">
<!-- Generated by graphviz version 2.26.3 (20100126.1600)
 -->
<!-- Title: create_volume Pages: 1 -->
<svg width="1434pt" height="726pt"
 viewBox="0.00 0.00 1434.00 726.00" xmlns="http://www.w3.org/2000/svg" xmlns:xlink="http://www.w3.org/1999/xlink">
<g id="graph1" class="graph" transform="scale(1 1) rotate(0) translate(4 722)">
<title>create_volume</title>
<polygon fill="white" stroke="white" points="-4,5 -4,-722 1431,-722 1431,5 -4,5"/>
<!-- cl -->
<g id="node2" class="node"><title>cl</title>
<polygon fill="none" stroke="black" points="35,-672 35,-708 89,-708 89,-672 35,-672"/>
<text text-anchor="middle" x="62" y="-686.9" font-family="Times Roman,serif" font-size="14.00">client</text>
</g>
<!-- na -->
<g id="node3" class="node"><title>na</title>
<polygon fill="none" stroke="black" points="327.5,-663 327.5,-717 612.5,-717 612.5,-663 327.5,-663"/>
<text text-anchor="middle" x="470" y="-700.4" font-family="Times Roman,serif" font-size="14.00">nova&#45;api&#45;os&#45;compute</text>
<polyline fill="none" stroke="black" points="327.5,-690 612.5,-690 "/>
<text text-anchor="middle" x="359" y="-673.4" font-family="Times Roman,serif" font-size="14.00">nova.api</text>
<polyline fill="none" stroke="black" points="390.5,-663 390.5,-690 "/>
<text text-anchor="middle" x="447.5" y="-673.4" font-family="Times Roman,serif" font-size="14.00">nova.compute.api</text>
<polyline fill="none" stroke="black" points="504.5,-663 504.5,-690 "/>
<text text-anchor="middle" x="558.5" y="-673.4" font-family="Times Roman,serif" font-size="14.00">nova.volume.api</text>
</g>
<!-- cl&#45;&gt;na -->
<g id="edge3" class="edge"><title>cl&#45;&gt;na</title>
</g>
<!-- cl1 -->
<g id="node7" class="node"><title>cl1</title>
<polygon fill="none" stroke="black" points="124,-644 4.9738e-14,-644 0,-608 124,-608 124,-644"/>
<text text-anchor="middle" x="62" y="-622.9" font-family="Times Roman,serif" font-size="14.00">nova attach&#45;volume</text>
</g>
<!-- cl&#45;&gt;cl1 -->
<g id="edge72" class="edge"><title>cl&#45;&gt;cl1</title>
<path fill="none" stroke="black" d="M62,-671.831C62,-663.258 62,-653.044 62,-644.436"/>
</g>
<!-- nc -->
<g id="node4" class="node"><title>nc</title>
<polygon fill="none" stroke="black" points="647.5,-663 647.5,-717 1030.5,-717 1030.5,-663 647.5,-663"/>
<text text-anchor="middle" x="839" y="-700.4" font-family="Times Roman,serif" font-size="14.00">nova&#45;compute</text>
<polyline fill="none" stroke="black" points="647.5,-690 1030.5,-690 "/>
<text text-anchor="middle" x="720" y="-673.4" font-family="Times Roman,serif" font-size="14.00">nova.compute.manager</text>
<polyline fill="none" stroke="black" points="792.5,-663 792.5,-690 "/>
<text text-anchor="middle" x="857.5" y="-673.4" font-family="Times Roman,serif" font-size="14.00">nova.compute.driver</text>
<polyline fill="none" stroke="black" points="922.5,-663 922.5,-690 "/>
<text text-anchor="middle" x="976.5" y="-673.4" font-family="Times Roman,serif" font-size="14.00">nova.volume.api</text>
</g>
<!-- na&#45;&gt;nc -->
<g id="edge4" class="edge"><title>na&#45;&gt;nc</title>
</g>
<!-- na1 -->
<g id="node10" class="node"><title>na1</title>
<ellipse fill="black" stroke="black" cx="335" cy="-626" rx="1.8" ry="1.8"/>
</g>
<!-- na&#45;&gt;na1 -->
<g id="edge75" class="edge"><title>na:na&#45;&gt;na1</title>
<path fill="none" stroke="black" d="M359,-663C359,-663 340.625,-634.672 336.031,-627.59"/>
</g>
<!-- ca1 -->
<g id="node12" class="node"><title>ca1</title>
<ellipse fill="black" stroke="black" cx="447" cy="-626" rx="1.8" ry="1.8"/>
</g>
<!-- na&#45;&gt;ca1 -->
<g id="edge78" class="edge"><title>na:ca&#45;&gt;ca1</title>
<path fill="none" stroke="black" d="M447,-663C447,-663 447,-635.675 447,-627.989"/>
</g>
<!-- va1 -->
<g id="node20" class="node"><title>va1</title>
<ellipse fill="black" stroke="black" cx="561" cy="-588" rx="1.8" ry="1.8"/>
</g>
<!-- na&#45;&gt;va1 -->
<g id="edge86" class="edge"><title>na:va&#45;&gt;va1</title>
<path fill="none" stroke="black" d="M559.304,-662.635C559.793,-641.094 560.725,-600.107 560.95,-590.197"/>
</g>
<!-- nv -->
<g id="node5" class="node"><title>nv</title>
<polygon fill="none" stroke="black" points="1112.5,-663 1112.5,-717 1375.5,-717 1375.5,-663 1112.5,-663"/>
<text text-anchor="middle" x="1244" y="-700.4" font-family="Times Roman,serif" font-size="14.00">nova&#45;volume</text>
<polyline fill="none" stroke="black" points="1112.5,-690 1375.5,-690 "/>
<text text-anchor="middle" x="1182" y="-673.4" font-family="Times Roman,serif" font-size="14.00">nova.volume.manager</text>
<polyline fill="none" stroke="black" points="1251.5,-663 1251.5,-690 "/>
<text text-anchor="middle" x="1313.5" y="-673.4" font-family="Times Roman,serif" font-size="14.00">nova.volume.driver</text>
</g>
<!-- nc&#45;&gt;nv -->
<g id="edge5" class="edge"><title>nc&#45;&gt;nv</title>
</g>
<!-- cm1 -->
<g id="node28" class="node"><title>cm1</title>
<ellipse fill="black" stroke="black" cx="714" cy="-392" rx="1.8" ry="1.8"/>
</g>
<!-- nc&#45;&gt;cm1 -->
<g id="edge93" class="edge"><title>nc:cm&#45;&gt;cm1</title>
<path fill="none" stroke="black" d="M719.719,-662.683C718.597,-609.606 714.486,-414.991 714.039,-393.864"/>
</g>
<!-- cd1 -->
<g id="node45" class="node"><title>cd1</title>
<ellipse fill="black" stroke="black" cx="860" cy="-370" rx="1.8" ry="1.8"/>
</g>
<!-- nc&#45;&gt;cd1 -->
<g id="edge103" class="edge"><title>nc:cd&#45;&gt;cd1</title>
<path fill="none" stroke="black" d="M858.086,-662.852C858.448,-607.484 859.836,-395.099 859.987,-372.035"/>
</g>
<!-- vac1 -->
<g id="node49" class="node"><title>vac1</title>
<ellipse fill="black" stroke="black" cx="977" cy="-348" rx="1.8" ry="1.8"/>
</g>
<!-- nc&#45;&gt;vac1 -->
<g id="edge108" class="edge"><title>nc:va&#45;&gt;vac1</title>
<path fill="none" stroke="black" d="M977,-662.736C977,-604.488 977,-373.238 977,-349.902"/>
</g>
<!-- vm1 -->
<g id="node66" class="node"><title>vm1</title>
<ellipse fill="black" stroke="black" cx="1181" cy="-348" rx="1.8" ry="1.8"/>
</g>
<!-- nv&#45;&gt;vm1 -->
<g id="edge113" class="edge"><title>nv:vm&#45;&gt;vm1</title>
<path fill="none" stroke="black" d="M1181.96,-662.736C1181.78,-604.488 1181.08,-373.238 1181.01,-349.902"/>
</g>
<!-- vd1 -->
<g id="node80" class="node"><title>vd1</title>
<ellipse fill="black" stroke="black" cx="1317" cy="-348" rx="1.8" ry="1.8"/>
</g>
<!-- nv&#45;&gt;vd1 -->
<g id="edge119" class="edge"><title>nv:vd&#45;&gt;vd1</title>
<path fill="none" stroke="black" d="M1314.12,-662.736C1314.65,-604.488 1316.77,-373.238 1316.98,-349.902"/>
</g>
<!-- cl1&#45;&gt;na1 -->
<g id="edge8" class="edge"><title>cl1&#45;&gt;na1</title>
<path fill="none" stroke="black" d="M124.632,-626C190.49,-626 289.177,-626 323.073,-626"/>
<polygon fill="black" stroke="black" points="323.138,-629.5 333.138,-626 323.137,-622.5 323.138,-629.5"/>
<text text-anchor="middle" x="228" y="-632.4" font-family="Times Roman,serif" font-size="14.00">POST to /os&#45;volume_attachements</text>
</g>
<!-- cl2 -->
<g id="node16" class="node"><title>cl2</title>
<ellipse fill="black" stroke="black" cx="62" cy="-370" rx="1.8" ry="1.8"/>
</g>
<!-- cl1&#45;&gt;cl2 -->
<g id="edge73" class="edge"><title>cl1&#45;&gt;cl2</title>
<path fill="none" stroke="black" d="M62,-607.999C62,-553.369 62,-391.992 62,-372.033"/>
</g>
<!-- na1&#45;&gt;ca1 -->
<g id="edge10" class="edge"><title>na1&#45;&gt;ca1</title>
<path fill="none" stroke="black" d="M336.944,-626C348.52,-626 408.756,-626 434.885,-626"/>
<polygon fill="black" stroke="black" points="435.003,-629.5 445.003,-626 435.002,-622.5 435.003,-629.5"/>
<text text-anchor="middle" x="391" y="-632.4" font-family="Times Roman,serif" font-size="14.00">attach_volume()</text>
</g>
<!-- na2 -->
<g id="node14" class="node"><title>na2</title>
<ellipse fill="black" stroke="black" cx="335" cy="-370" rx="1.8" ry="1.8"/>
</g>
<!-- na1&#45;&gt;na2 -->
<g id="edge76" class="edge"><title>na1&#45;&gt;na2</title>
<path fill="none" stroke="black" d="M335,-624.087C335,-601.941 335,-394.609 335,-371.998"/>
</g>
<!-- ca2 -->
<g id="node18" class="node"><title>ca2</title>
<ellipse fill="black" stroke="black" cx="445" cy="-588" rx="1.8" ry="1.8"/>
</g>
<!-- ca1&#45;&gt;ca2 -->
<g id="edge79" class="edge"><title>ca1&#45;&gt;ca2</title>
<path fill="none" stroke="black" d="M446.892,-623.957C446.542,-617.297 445.436,-596.278 445.098,-589.871"/>
</g>
<!-- na2&#45;&gt;cl2 -->
<g id="edge13" class="edge"><title>na2&#45;&gt;cl2</title>
<path fill="none" stroke="black" d="M333.158,-370C312.527,-370 124.575,-370 74.3123,-370"/>
<polygon fill="black" stroke="black" points="74.0405,-366.5 64.0405,-370 74.0405,-373.5 74.0405,-366.5"/>
<text text-anchor="middle" x="198" y="-376.4" font-family="Times Roman,serif" font-size="14.00">200 OK (no useful info here)</text>
</g>
<!-- ca2&#45;&gt;va1 -->
<g id="edge16" class="edge"><title>ca2&#45;&gt;va1</title>
<path fill="none" stroke="black" d="M447.013,-588C459.058,-588 521.963,-588 548.823,-588"/>
<polygon fill="black" stroke="black" points="548.931,-591.5 558.931,-588 548.931,-584.5 548.931,-591.5"/>
<text text-anchor="middle" x="503" y="-594.4" font-family="Times Roman,serif" font-size="14.00">check_attach()</text>
</g>
<!-- ca3 -->
<g id="node36" class="node"><title>ca3</title>
<ellipse fill="black" stroke="black" cx="445" cy="-512" rx="1.8" ry="1.8"/>
</g>
<!-- ca2&#45;&gt;ca3 -->
<g id="edge80" class="edge"><title>ca2&#45;&gt;ca3</title>
<path fill="none" stroke="black" d="M445,-586.121C445,-575.607 445,-524.156 445,-513.813"/>
</g>
<!-- va2 -->
<g id="node32" class="node"><title>va2</title>
<polygon fill="none" stroke="black" points="624,-568 498,-568 498,-532 624,-532 624,-568"/>
<text text-anchor="middle" x="561" y="-546.9" font-family="Times Roman,serif" font-size="14.00">assert volume status</text>
</g>
<!-- va1&#45;&gt;va2 -->
<g id="edge87" class="edge"><title>va1&#45;&gt;va2</title>
<path fill="none" stroke="black" d="M561,-585.957C561,-582.504 561,-575.19 561,-568.054"/>
</g>
<!-- ca4 -->
<g id="node22" class="node"><title>ca4</title>
<ellipse fill="black" stroke="black" cx="442" cy="-490" rx="1.8" ry="1.8"/>
</g>
<!-- va4 -->
<g id="node24" class="node"><title>va4</title>
<ellipse fill="black" stroke="black" cx="561" cy="-490" rx="1.8" ry="1.8"/>
</g>
<!-- ca4&#45;&gt;va4 -->
<g id="edge19" class="edge"><title>ca4&#45;&gt;va4</title>
<path fill="none" stroke="black" d="M444.065,-490C456.422,-490 520.954,-490 548.508,-490"/>
<polygon fill="black" stroke="black" points="548.878,-493.5 558.878,-490 548.878,-486.5 548.878,-493.5"/>
<text text-anchor="middle" x="501" y="-496.4" font-family="Times Roman,serif" font-size="14.00">reserve_volume()</text>
</g>
<!-- ca5 -->
<g id="node41" class="node"><title>ca5</title>
<ellipse fill="black" stroke="black" cx="442" cy="-414" rx="1.8" ry="1.8"/>
</g>
<!-- ca4&#45;&gt;ca5 -->
<g id="edge82" class="edge"><title>ca4&#45;&gt;ca5</title>
<path fill="none" stroke="black" d="M442,-488.121C442,-477.607 442,-426.156 442,-415.813"/>
</g>
<!-- va5 -->
<g id="node37" class="node"><title>va5</title>
<polygon fill="none" stroke="black" points="640,-470 482,-470 482,-434 640,-434 640,-470"/>
<text text-anchor="middle" x="561" y="-448.9" font-family="Times Roman,serif" font-size="14.00">mark volume as attaching</text>
</g>
<!-- va4&#45;&gt;va5 -->
<g id="edge90" class="edge"><title>va4&#45;&gt;va5</title>
<path fill="none" stroke="black" d="M561,-487.957C561,-484.504 561,-477.19 561,-470.054"/>
</g>
<!-- ca6 -->
<g id="node26" class="node"><title>ca6</title>
<ellipse fill="black" stroke="black" cx="442" cy="-392" rx="1.8" ry="1.8"/>
</g>
<!-- ca6&#45;&gt;cm1 -->
<g id="edge22" class="edge"><title>ca6&#45;&gt;cm1</title>
<path fill="none" stroke="black" stroke-dasharray="5,2" d="M444.033,-392C465.583,-392 652.183,-392 701.882,-392"/>
<polygon fill="black" stroke="black" points="702.165,-395.5 712.165,-392 702.165,-388.5 702.165,-395.5"/>
<text text-anchor="middle" x="578" y="-398.4" font-family="Times Roman,serif" font-size="14.00">cast attach_volume method</text>
</g>
<!-- ca7 -->
<g id="node30" class="node"><title>ca7</title>
<ellipse fill="black" stroke="black" cx="442" cy="-370" rx="1.8" ry="1.8"/>
</g>
<!-- ca6&#45;&gt;ca7 -->
<g id="edge84" class="edge"><title>ca6&#45;&gt;ca7</title>
<path fill="none" stroke="black" d="M442,-389.97C442,-385.715 442,-375.92 442,-371.838"/>
</g>
<!-- cm2 -->
<g id="node43" class="node"><title>cm2</title>
<ellipse fill="black" stroke="black" cx="704" cy="-370" rx="1.8" ry="1.8"/>
</g>
<!-- cm1&#45;&gt;cm2 -->
<g id="edge94" class="edge"><title>cm1&#45;&gt;cm2</title>
<path fill="none" stroke="black" d="M713.215,-390.274C711.374,-386.222 706.785,-376.127 704.866,-371.904"/>
</g>
<!-- ca7&#45;&gt;na2 -->
<g id="edge25" class="edge"><title>ca7&#45;&gt;na2</title>
<path fill="none" stroke="black" d="M439.951,-370C409.012,-370 378.074,-370 347.135,-370"/>
<polygon fill="black" stroke="black" points="347.09,-366.5 337.09,-370 347.09,-373.5 347.09,-366.5"/>
</g>
<!-- va3 -->
<g id="node34" class="node"><title>va3</title>
<ellipse fill="black" stroke="black" cx="561" cy="-512" rx="1.8" ry="1.8"/>
</g>
<!-- va2&#45;&gt;va3 -->
<g id="edge88" class="edge"><title>va2&#45;&gt;va3</title>
<path fill="none" stroke="black" d="M561,-531.89C561,-524.856 561,-517.658 561,-514.166"/>
</g>
<!-- va3&#45;&gt;va4 -->
<g id="edge89" class="edge"><title>va3&#45;&gt;va4</title>
<path fill="none" stroke="black" d="M561,-509.97C561,-505.715 561,-495.92 561,-491.838"/>
</g>
<!-- va3&#45;&gt;ca3 -->
<g id="edge28" class="edge"><title>va3&#45;&gt;ca3</title>
<path fill="none" stroke="black" d="M558.77,-512C524.804,-512 490.837,-512 456.871,-512"/>
<polygon fill="black" stroke="black" points="456.813,-508.5 446.812,-512 456.812,-515.5 456.813,-508.5"/>
</g>
<!-- ca3&#45;&gt;ca4 -->
<g id="edge81" class="edge"><title>ca3&#45;&gt;ca4</title>
<path fill="none" stroke="black" d="M444.723,-509.97C444.143,-505.715 442.807,-495.92 442.251,-491.838"/>
</g>
<!-- va6 -->
<g id="node39" class="node"><title>va6</title>
<ellipse fill="black" stroke="black" cx="561" cy="-414" rx="1.8" ry="1.8"/>
</g>
<!-- va5&#45;&gt;va6 -->
<g id="edge91" class="edge"><title>va5&#45;&gt;va6</title>
<path fill="none" stroke="black" d="M561,-433.89C561,-426.856 561,-419.658 561,-416.166"/>
</g>
<!-- va6&#45;&gt;ca5 -->
<g id="edge31" class="edge"><title>va6&#45;&gt;ca5</title>
<path fill="none" stroke="black" d="M559.17,-414C524.186,-414 489.203,-414 454.219,-414"/>
<polygon fill="black" stroke="black" points="453.859,-410.5 443.859,-414 453.859,-417.5 453.859,-410.5"/>
</g>
<!-- ca5&#45;&gt;ca6 -->
<g id="edge83" class="edge"><title>ca5&#45;&gt;ca6</title>
<path fill="none" stroke="black" d="M442,-411.97C442,-407.715 442,-397.92 442,-393.838"/>
</g>
<!-- cm2&#45;&gt;cd1 -->
<g id="edge34" class="edge"><title>cm2&#45;&gt;cd1</title>
<path fill="none" stroke="black" d="M716.192,-370C745.388,-370 819.032,-370 848.016,-370"/>
<polygon fill="black" stroke="black" points="715.972,-366.5 705.972,-370 715.972,-373.5 715.972,-366.5"/>
<polygon fill="black" stroke="black" points="848.072,-373.5 858.072,-370 848.072,-366.5 848.072,-373.5"/>
<text text-anchor="middle" x="782" y="-395.4" font-family="Times Roman,serif" font-size="14.00">get_volume_connector()</text>
<text text-anchor="middle" x="782" y="-376.4" font-family="Times Roman,serif" font-size="14.00">(initiator and node&#39;s IP)</text>
</g>
<!-- cm3 -->
<g id="node47" class="node"><title>cm3</title>
<ellipse fill="black" stroke="black" cx="704" cy="-348" rx="1.8" ry="1.8"/>
</g>
<!-- cm2&#45;&gt;cm3 -->
<g id="edge95" class="edge"><title>cm2&#45;&gt;cm3</title>
<path fill="none" stroke="black" d="M704,-367.97C704,-363.715 704,-353.92 704,-349.838"/>
</g>
<!-- cd2 -->
<g id="node53" class="node"><title>cd2</title>
<ellipse fill="black" stroke="black" cx="860" cy="-240" rx="1.8" ry="1.8"/>
</g>
<!-- cd1&#45;&gt;cd2 -->
<g id="edge104" class="edge"><title>cd1&#45;&gt;cd2</title>
<path fill="none" stroke="black" d="M860,-368.162C860,-353.596 860,-256.967 860,-241.958"/>
</g>
<!-- cm3&#45;&gt;vac1 -->
<g id="edge37" class="edge"><title>cm3&#45;&gt;vac1</title>
<path fill="none" stroke="black" d="M706.04,-348C727.716,-348 915.759,-348 965.156,-348"/>
<polygon fill="black" stroke="black" points="965.158,-351.5 975.158,-348 965.158,-344.5 965.158,-351.5"/>
<text text-anchor="middle" x="841" y="-354.4" font-family="Times Roman,serif" font-size="14.00">initialize_connection()</text>
</g>
<!-- cm4 -->
<g id="node70" class="node"><title>cm4</title>
<ellipse fill="black" stroke="black" cx="704" cy="-262" rx="1.8" ry="1.8"/>
</g>
<!-- cm3&#45;&gt;cm4 -->
<g id="edge96" class="edge"><title>cm3&#45;&gt;cm4</title>
<path fill="none" stroke="black" d="M704,-345.874C704,-333.976 704,-275.755 704,-264.052"/>
</g>
<!-- vac1&#45;&gt;vm1 -->
<g id="edge49" class="edge"><title>vac1&#45;&gt;vm1</title>
<path fill="none" stroke="black" stroke-dasharray="5,2" d="M979.291,-348C998.168,-348 1128.35,-348 1168.94,-348"/>
<polygon fill="black" stroke="black" points="1168.98,-351.5 1178.98,-348 1168.98,-344.5 1168.98,-351.5"/>
<text text-anchor="middle" x="1079" y="-354.4" font-family="Times Roman,serif" font-size="14.00">call initialize_connection method</text>
</g>
<!-- vac2 -->
<g id="node68" class="node"><title>vac2</title>
<ellipse fill="black" stroke="black" cx="977" cy="-262" rx="1.8" ry="1.8"/>
</g>
<!-- vac1&#45;&gt;vac2 -->
<g id="edge109" class="edge"><title>vac1&#45;&gt;vac2</title>
<path fill="none" stroke="black" d="M977,-345.874C977,-333.976 977,-275.755 977,-264.052"/>
</g>
<!-- cm5 -->
<g id="node51" class="node"><title>cm5</title>
<ellipse fill="black" stroke="black" cx="704" cy="-240" rx="1.8" ry="1.8"/>
</g>
<!-- cm5&#45;&gt;cd2 -->
<g id="edge40" class="edge"><title>cm5&#45;&gt;cd2</title>
<path fill="none" stroke="black" d="M705.972,-240C720.728,-240 814.209,-240 847.909,-240"/>
<polygon fill="black" stroke="black" points="848.072,-243.5 858.072,-240 848.072,-236.5 848.072,-243.5"/>
<text text-anchor="middle" x="782" y="-246.4" font-family="Times Roman,serif" font-size="14.00">attach_volume()</text>
</g>
<!-- cm6 -->
<g id="node63" class="node"><title>cm6</title>
<ellipse fill="black" stroke="black" cx="704" cy="-154" rx="1.8" ry="1.8"/>
</g>
<!-- cm5&#45;&gt;cm6 -->
<g id="edge98" class="edge"><title>cm5&#45;&gt;cm6</title>
<path fill="none" stroke="black" d="M704,-237.874C704,-225.976 704,-167.755 704,-156.052"/>
</g>
<!-- cd3 -->
<g id="node59" class="node"><title>cd3</title>
<polygon fill="none" stroke="black" points="928,-220 792,-220 792,-174 928,-174 928,-220"/>
<text text-anchor="middle" x="860" y="-203.4" font-family="Times Roman,serif" font-size="14.00">attach volume to VM</text>
<text text-anchor="middle" x="860" y="-184.4" font-family="Times Roman,serif" font-size="14.00">using connection_info</text>
</g>
<!-- cd2&#45;&gt;cd3 -->
<g id="edge105" class="edge"><title>cd2&#45;&gt;cd3</title>
<path fill="none" stroke="black" d="M860,-238.152C860,-234.873 860,-227.674 860,-220.199"/>
</g>
<!-- cm7 -->
<g id="node55" class="node"><title>cm7</title>
<ellipse fill="black" stroke="black" cx="704" cy="-132" rx="1.8" ry="1.8"/>
</g>
<!-- vac3 -->
<g id="node57" class="node"><title>vac3</title>
<ellipse fill="black" stroke="black" cx="977" cy="-132" rx="1.8" ry="1.8"/>
</g>
<!-- cm7&#45;&gt;vac3 -->
<g id="edge43" class="edge"><title>cm7&#45;&gt;vac3</title>
<path fill="none" stroke="black" d="M706.04,-132C727.716,-132 915.759,-132 965.156,-132"/>
<polygon fill="black" stroke="black" points="965.158,-135.5 975.158,-132 965.158,-128.5 965.158,-135.5"/>
<text text-anchor="middle" x="841" y="-138.4" font-family="Times Roman,serif" font-size="14.00">attach()</text>
</g>
<!-- cm8 -->
<g id="node77" class="node"><title>cm8</title>
<ellipse fill="black" stroke="black" cx="704" cy="-56" rx="1.8" ry="1.8"/>
</g>
<!-- cm7&#45;&gt;cm8 -->
<g id="edge100" class="edge"><title>cm7&#45;&gt;cm8</title>
<path fill="none" stroke="black" d="M704,-130.121C704,-119.607 704,-68.1555 704,-57.813"/>
</g>
<!-- vm3 -->
<g id="node73" class="node"><title>vm3</title>
<ellipse fill="black" stroke="black" cx="1180" cy="-132" rx="1.8" ry="1.8"/>
</g>
<!-- vac3&#45;&gt;vm3 -->
<g id="edge55" class="edge"><title>vac3&#45;&gt;vm3</title>
<path fill="none" stroke="black" stroke-dasharray="5,2" d="M979.28,-132C998.024,-132 1127.04,-132 1167.73,-132"/>
<polygon fill="black" stroke="black" points="1167.99,-135.5 1177.99,-132 1167.99,-128.5 1167.99,-135.5"/>
<text text-anchor="middle" x="1079" y="-138.4" font-family="Times Roman,serif" font-size="14.00">call attach_volume method</text>
</g>
<!-- vac4 -->
<g id="node75" class="node"><title>vac4</title>
<ellipse fill="black" stroke="black" cx="977" cy="-56" rx="1.8" ry="1.8"/>
</g>
<!-- vac3&#45;&gt;vac4 -->
<g id="edge111" class="edge"><title>vac3&#45;&gt;vac4</title>
<path fill="none" stroke="black" d="M977,-130.121C977,-119.607 977,-68.1555 977,-57.813"/>
</g>
<!-- cm9 -->
<g id="node58" class="node"><title>cm9</title>
<polygon fill="none" stroke="black" points="793,-36 615,-36 615,-1.77636e-14 793,-3.55271e-15 793,-36"/>
<text text-anchor="middle" x="704" y="-14.9" font-family="Times Roman,serif" font-size="14.00">create block_device_mapping</text>
</g>
<!-- cd4 -->
<g id="node61" class="node"><title>cd4</title>
<ellipse fill="black" stroke="black" cx="860" cy="-154" rx="1.8" ry="1.8"/>
</g>
<!-- cd3&#45;&gt;cd4 -->
<g id="edge106" class="edge"><title>cd3&#45;&gt;cd4</title>
<path fill="none" stroke="black" d="M860,-173.989C860,-166.641 860,-159.529 860,-156.11"/>
</g>
<!-- cd4&#45;&gt;cm6 -->
<g id="edge46" class="edge"><title>cd4&#45;&gt;cm6</title>
<path fill="none" stroke="black" d="M858.193,-154C810.778,-154 763.362,-154 715.946,-154"/>
<polygon fill="black" stroke="black" points="715.828,-150.5 705.828,-154 715.828,-157.5 715.828,-150.5"/>
</g>
<!-- cm6&#45;&gt;cm7 -->
<g id="edge99" class="edge"><title>cm6&#45;&gt;cm7</title>
<path fill="none" stroke="black" d="M704,-151.97C704,-147.715 704,-137.92 704,-133.838"/>
</g>
<!-- vm1&#45;&gt;vd1 -->
<g id="edge61" class="edge"><title>vm1&#45;&gt;vd1</title>
<path fill="none" stroke="black" d="M1182.92,-348C1196.14,-348 1273.91,-348 1304.58,-348"/>
<polygon fill="black" stroke="black" points="1304.95,-351.5 1314.95,-348 1304.95,-344.5 1304.95,-351.5"/>
<text text-anchor="middle" x="1249" y="-354.4" font-family="Times Roman,serif" font-size="14.00">initialize_connection</text>
</g>
<!-- vm2 -->
<g id="node82" class="node"><title>vm2</title>
<ellipse fill="black" stroke="black" cx="1180" cy="-262" rx="1.8" ry="1.8"/>
</g>
<!-- vm1&#45;&gt;vm2 -->
<g id="edge114" class="edge"><title>vm1&#45;&gt;vm2</title>
<path fill="none" stroke="black" d="M1180.98,-345.874C1180.84,-333.976 1180.16,-275.755 1180.02,-264.052"/>
</g>
<!-- vac2&#45;&gt;vac3 -->
<g id="edge110" class="edge"><title>vac2&#45;&gt;vac3</title>
<path fill="none" stroke="black" d="M977,-260.162C977,-245.596 977,-148.967 977,-133.958"/>
</g>
<!-- vac2&#45;&gt;cm4 -->
<g id="edge52" class="edge"><title>vac2&#45;&gt;cm4</title>
<path fill="none" stroke="black" d="M975.158,-262C954.527,-262 766.575,-262 716.312,-262"/>
<polygon fill="black" stroke="black" points="716.041,-258.5 706.04,-262 716.04,-265.5 716.041,-258.5"/>
<text text-anchor="middle" x="841" y="-268.4" font-family="Times Roman,serif" font-size="14.00">connection_info</text>
</g>
<!-- cm4&#45;&gt;cm5 -->
<g id="edge97" class="edge"><title>cm4&#45;&gt;cm5</title>
<path fill="none" stroke="black" d="M704,-259.97C704,-255.715 704,-245.92 704,-241.838"/>
</g>
<!-- vm4 -->
<g id="node84" class="node"><title>vm4</title>
<polygon fill="none" stroke="black" points="1257,-112 1103,-112 1103,-76 1257,-76 1257,-112"/>
<text text-anchor="middle" x="1180" y="-90.9" font-family="Times Roman,serif" font-size="14.00">mark volume as attached</text>
</g>
<!-- vm3&#45;&gt;vm4 -->
<g id="edge116" class="edge"><title>vm3&#45;&gt;vm4</title>
<path fill="none" stroke="black" d="M1180,-129.957C1180,-126.504 1180,-119.19 1180,-112.054"/>
</g>
<!-- vac4&#45;&gt;cm8 -->
<g id="edge58" class="edge"><title>vac4&#45;&gt;cm8</title>
<path fill="none" stroke="black" d="M975.147,-56C888.805,-56 802.464,-56 716.122,-56"/>
<polygon fill="black" stroke="black" points="715.866,-52.5001 705.866,-56 715.866,-59.5001 715.866,-52.5001"/>
</g>
<!-- cm8&#45;&gt;cm9 -->
<g id="edge101" class="edge"><title>cm8&#45;&gt;cm9</title>
<path fill="none" stroke="black" d="M704,-53.957C704,-50.5038 704,-43.1897 704,-36.0541"/>
</g>
<!-- vd2 -->
<g id="node88" class="node"><title>vd2</title>
<polygon fill="none" stroke="black" points="1426,-328 1208,-328 1208,-282 1426,-282 1426,-328"/>
<text text-anchor="middle" x="1317" y="-311.4" font-family="Times Roman,serif" font-size="14.00">form connection_info</text>
<text text-anchor="middle" x="1317" y="-292.4" font-family="Times Roman,serif" font-size="14.00">(iscsi, rbd or sheepdog + target spec)</text>
</g>
<!-- vd1&#45;&gt;vd2 -->
<g id="edge120" class="edge"><title>vd1&#45;&gt;vd2</title>
<path fill="none" stroke="black" d="M1317,-346.152C1317,-342.873 1317,-335.674 1317,-328.199"/>
</g>
<!-- vm2&#45;&gt;vac2 -->
<g id="edge64" class="edge"><title>vm2&#45;&gt;vac2</title>
<path fill="none" stroke="black" stroke-dasharray="5,2" d="M1177.99,-262C1160.27,-262 1030.31,-262 989.34,-262"/>
<polygon fill="black" stroke="black" points="989.28,-258.5 979.28,-262 989.28,-265.5 989.28,-258.5"/>
<text text-anchor="middle" x="1079" y="-268.4" font-family="Times Roman,serif" font-size="14.00">connection_info</text>
</g>
<!-- vm2&#45;&gt;vm3 -->
<g id="edge115" class="edge"><title>vm2&#45;&gt;vm3</title>
<path fill="none" stroke="black" d="M1180,-260.162C1180,-245.596 1180,-148.967 1180,-133.958"/>
</g>
<!-- vm5 -->
<g id="node86" class="node"><title>vm5</title>
<ellipse fill="black" stroke="black" cx="1180" cy="-56" rx="1.8" ry="1.8"/>
</g>
<!-- vm4&#45;&gt;vm5 -->
<g id="edge117" class="edge"><title>vm4&#45;&gt;vm5</title>
<path fill="none" stroke="black" d="M1180,-75.8903C1180,-68.8557 1180,-61.658 1180,-58.1657"/>
</g>
<!-- vm5&#45;&gt;vac4 -->
<g id="edge67" class="edge"><title>vm5&#45;&gt;vac4</title>
<path fill="none" stroke="black" stroke-dasharray="5,2" d="M1178.04,-56C1115.05,-56 1052.07,-56 989.091,-56"/>
<polygon fill="black" stroke="black" points="988.982,-52.5001 978.982,-56 988.982,-59.5001 988.982,-52.5001"/>
</g>
<!-- vd3 -->
<g id="node90" class="node"><title>vd3</title>
<ellipse fill="black" stroke="black" cx="1317" cy="-262" rx="1.8" ry="1.8"/>
</g>
<!-- vd2&#45;&gt;vd3 -->
<g id="edge121" class="edge"><title>vd2&#45;&gt;vd3</title>
<path fill="none" stroke="black" d="M1317,-281.989C1317,-274.641 1317,-267.529 1317,-264.11"/>
</g>
<!-- vd3&#45;&gt;vm2 -->
<g id="edge70" class="edge"><title>vd3&#45;&gt;vm2</title>
<path fill="none" stroke="black" d="M1314.94,-262C1301.22,-262 1222.82,-262 1192.23,-262"/>
<polygon fill="black" stroke="black" points="1191.94,-258.5 1181.94,-262 1191.94,-265.5 1191.94,-258.5"/>
<text text-anchor="middle" x="1249" y="-268.4" font-family="Times Roman,serif" font-size="14.00">connection_info</text>
</g>
</g>
</svg>
