<?xml version="1.0" encoding="UTF-8" standalone="no"?>
<!DOCTYPE svg PUBLIC "-//W3C//DTD SVG 1.1//EN"
 "http://www.w3.org/Graphics/SVG/1.1/DTD/svg11.dtd">
<!-- Generated by graphviz version 2.26.3 (20100126.1600)
 -->
<!-- Title: create_volume Pages: 1 -->
<svg width="1019pt" height="724pt"
 viewBox="0.00 0.00 1019.00 724.00" xmlns="http://www.w3.org/2000/svg" xmlns:xlink="http://www.w3.org/1999/xlink">
<g id="graph1" class="graph" transform="scale(1 1) rotate(0) translate(4 720)">
<title>create_volume</title>
<polygon fill="white" stroke="white" points="-4,5 -4,-720 1016,-720 1016,5 -4,5"/>
<!-- cl -->
<g id="node2" class="node"><title>cl</title>
<polygon fill="none" stroke="black" points="35,-670 35,-706 89,-706 89,-670 35,-670"/>
<text text-anchor="middle" x="62" y="-684.9" font-family="Times Roman,serif" font-size="14.00">client</text>
</g>
<!-- na -->
<g id="node3" class="node"><title>na</title>
<polygon fill="none" stroke="black" points="225.5,-661 225.5,-715 396.5,-715 396.5,-661 225.5,-661"/>
<text text-anchor="middle" x="311" y="-698.4" font-family="Times Roman,serif" font-size="14.00">nova&#45;api&#45;os&#45;volume</text>
<polyline fill="none" stroke="black" points="225.5,-688 396.5,-688 "/>
<text text-anchor="middle" x="257" y="-671.4" font-family="Times Roman,serif" font-size="14.00">nova.api</text>
<polyline fill="none" stroke="black" points="288.5,-661 288.5,-688 "/>
<text text-anchor="middle" x="342.5" y="-671.4" font-family="Times Roman,serif" font-size="14.00">nova.volume.api</text>
</g>
<!-- cl&#45;&gt;na -->
<g id="edge3" class="edge"><title>cl&#45;&gt;na</title>
</g>
<!-- cl1 -->
<g id="node8" class="node"><title>cl1</title>
<polygon fill="none" stroke="black" points="124,-642 4.9738e-14,-642 0,-606 124,-606 124,-642"/>
<text text-anchor="middle" x="62" y="-620.9" font-family="Times Roman,serif" font-size="14.00">nova create&#45;volume</text>
</g>
<!-- cl&#45;&gt;cl1 -->
<g id="edge42" class="edge"><title>cl&#45;&gt;cl1</title>
<path fill="none" stroke="black" d="M62,-669.831C62,-661.258 62,-651.044 62,-642.436"/>
</g>
<!-- ns -->
<g id="node4" class="node"><title>ns</title>
<polygon fill="none" stroke="black" points="495.5,-670 495.5,-706 594.5,-706 594.5,-670 495.5,-670"/>
<text text-anchor="middle" x="545" y="-684.9" font-family="Times Roman,serif" font-size="14.00">nova&#45;scheduler</text>
</g>
<!-- na&#45;&gt;ns -->
<g id="edge4" class="edge"><title>na&#45;&gt;ns</title>
</g>
<!-- na1 -->
<g id="node12" class="node"><title>na1</title>
<ellipse fill="black" stroke="black" cx="240" cy="-586" rx="1.8" ry="1.8"/>
</g>
<!-- na&#45;&gt;na1 -->
<g id="edge46" class="edge"><title>na:na&#45;&gt;na1</title>
<path fill="none" stroke="black" d="M254.418,-660.635C250.257,-639.094 242.339,-598.107 240.424,-588.197"/>
</g>
<!-- va1 -->
<g id="node14" class="node"><title>va1</title>
<ellipse fill="black" stroke="black" cx="372" cy="-586" rx="1.8" ry="1.8"/>
</g>
<!-- na&#45;&gt;va1 -->
<g id="edge49" class="edge"><title>na:va&#45;&gt;va1</title>
<path fill="none" stroke="black" d="M347.404,-660.635C354.503,-639.094 368.01,-598.107 371.276,-588.197"/>
</g>
<!-- nv -->
<g id="node5" class="node"><title>nv</title>
<polygon fill="none" stroke="black" points="648.5,-661 648.5,-715 911.5,-715 911.5,-661 648.5,-661"/>
<text text-anchor="middle" x="780" y="-698.4" font-family="Times Roman,serif" font-size="14.00">nova&#45;volume</text>
<polyline fill="none" stroke="black" points="648.5,-688 911.5,-688 "/>
<text text-anchor="middle" x="718" y="-671.4" font-family="Times Roman,serif" font-size="14.00">nova.volume.manager</text>
<polyline fill="none" stroke="black" points="787.5,-661 787.5,-688 "/>
<text text-anchor="middle" x="849.5" y="-671.4" font-family="Times Roman,serif" font-size="14.00">nova.volume.driver</text>
</g>
<!-- ns&#45;&gt;nv -->
<g id="edge5" class="edge"><title>ns&#45;&gt;nv</title>
</g>
<!-- ns1 -->
<g id="node19" class="node"><title>ns1</title>
<ellipse fill="black" stroke="black" cx="545" cy="-510" rx="1.8" ry="1.8"/>
</g>
<!-- ns&#45;&gt;ns1 -->
<g id="edge54" class="edge"><title>ns&#45;&gt;ns1</title>
<path fill="none" stroke="black" d="M545,-669.953C545,-628.235 545,-527.498 545,-512.012"/>
</g>
<!-- os -->
<g id="node6" class="node"><title>os</title>
<polygon fill="none" stroke="black" points="947,-670 947,-706 1001,-706 1001,-670 947,-670"/>
<text text-anchor="middle" x="974" y="-684.9" font-family="Times Roman,serif" font-size="14.00">OS</text>
</g>
<!-- nv&#45;&gt;os -->
<g id="edge6" class="edge"><title>nv&#45;&gt;os</title>
</g>
<!-- vm1 -->
<g id="node30" class="node"><title>vm1</title>
<ellipse fill="black" stroke="black" cx="718" cy="-434" rx="1.8" ry="1.8"/>
</g>
<!-- nv&#45;&gt;vm1 -->
<g id="edge58" class="edge"><title>nv:vm&#45;&gt;vm1</title>
<path fill="none" stroke="black" d="M718,-660.755C718,-613.586 718,-455.562 718,-435.994"/>
</g>
<!-- vd1 -->
<g id="node35" class="node"><title>vd1</title>
<ellipse fill="black" stroke="black" cx="850" cy="-358" rx="1.8" ry="1.8"/>
</g>
<!-- nv&#45;&gt;vd1 -->
<g id="edge67" class="edge"><title>nv:vd&#45;&gt;vd1</title>
<path fill="none" stroke="black" d="M850,-660.824C850,-604.056 850,-382.209 850,-359.824"/>
</g>
<!-- os1 -->
<g id="node43" class="node"><title>os1</title>
<polygon fill="none" stroke="black" points="1003,-338 945,-338 945,-302 1003,-302 1003,-338"/>
<text text-anchor="middle" x="974" y="-316.9" font-family="Times Roman,serif" font-size="14.00">lvcreate</text>
</g>
<!-- os&#45;&gt;os1 -->
<g id="edge75" class="edge"><title>os&#45;&gt;os1</title>
<path fill="none" stroke="black" d="M974,-669.751C974,-607.098 974,-401.179 974,-338.359"/>
</g>
<!-- cl2 -->
<g id="node10" class="node"><title>cl2</title>
<ellipse fill="black" stroke="black" cx="62" cy="-586" rx="1.8" ry="1.8"/>
</g>
<!-- cl1&#45;&gt;cl2 -->
<g id="edge43" class="edge"><title>cl1&#45;&gt;cl2</title>
<path fill="none" stroke="black" d="M62,-605.89C62,-598.856 62,-591.658 62,-588.166"/>
</g>
<!-- cl2&#45;&gt;na1 -->
<g id="edge9" class="edge"><title>cl2&#45;&gt;na1</title>
<path fill="none" stroke="black" d="M63.999,-586C80.1879,-586 190.189,-586 227.585,-586"/>
<polygon fill="black" stroke="black" points="228.016,-589.5 238.016,-586 228.016,-582.5 228.016,-589.5"/>
<text text-anchor="middle" x="151" y="-592.4" font-family="Times Roman,serif" font-size="14.00">POST to /volumes/</text>
</g>
<!-- cl3 -->
<g id="node25" class="node"><title>cl3</title>
<ellipse fill="black" stroke="black" cx="62" cy="-472" rx="1.8" ry="1.8"/>
</g>
<!-- cl2&#45;&gt;cl3 -->
<g id="edge44" class="edge"><title>cl2&#45;&gt;cl3</title>
<path fill="none" stroke="black" d="M62,-584.021C62,-570.184 62,-488.048 62,-474.033"/>
</g>
<!-- na1&#45;&gt;va1 -->
<g id="edge11" class="edge"><title>na1&#45;&gt;va1</title>
<path fill="none" stroke="black" d="M241.866,-586C254.692,-586 330.18,-586 359.944,-586"/>
<polygon fill="black" stroke="black" points="360.012,-589.5 370.012,-586 360.012,-582.5 360.012,-589.5"/>
<text text-anchor="middle" x="306" y="-592.4" font-family="Times Roman,serif" font-size="14.00">volume_api.create()</text>
</g>
<!-- na2 -->
<g id="node23" class="node"><title>na2</title>
<ellipse fill="black" stroke="black" cx="240" cy="-472" rx="1.8" ry="1.8"/>
</g>
<!-- na1&#45;&gt;na2 -->
<g id="edge47" class="edge"><title>na1&#45;&gt;na2</title>
<path fill="none" stroke="black" d="M240,-584.021C240,-570.184 240,-488.048 240,-474.033"/>
</g>
<!-- va2 -->
<g id="node15" class="node"><title>va2</title>
<polygon fill="none" stroke="black" points="463,-566 281,-566 281,-530 463,-530 463,-566"/>
<text text-anchor="middle" x="372" y="-544.9" font-family="Times Roman,serif" font-size="14.00">do all policy and quota checks</text>
</g>
<!-- va1&#45;&gt;va2 -->
<g id="edge50" class="edge"><title>va1&#45;&gt;va2</title>
<path fill="none" stroke="black" d="M372,-583.957C372,-580.504 372,-573.19 372,-566.054"/>
</g>
<!-- va3 -->
<g id="node17" class="node"><title>va3</title>
<ellipse fill="black" stroke="black" cx="372" cy="-510" rx="1.8" ry="1.8"/>
</g>
<!-- va2&#45;&gt;va3 -->
<g id="edge51" class="edge"><title>va2&#45;&gt;va3</title>
<path fill="none" stroke="black" d="M372,-529.89C372,-522.856 372,-515.658 372,-512.166"/>
</g>
<!-- va3&#45;&gt;ns1 -->
<g id="edge14" class="edge"><title>va3&#45;&gt;ns1</title>
<path fill="none" stroke="black" stroke-dasharray="5,2" d="M373.943,-510C389.611,-510 495.695,-510 532.474,-510"/>
<polygon fill="black" stroke="black" points="532.844,-513.5 542.844,-510 532.844,-506.5 532.844,-513.5"/>
<text text-anchor="middle" x="458" y="-516.4" font-family="Times Roman,serif" font-size="14.00">cast create_volume method</text>
</g>
<!-- va4 -->
<g id="node21" class="node"><title>va4</title>
<ellipse fill="black" stroke="black" cx="372" cy="-472" rx="1.8" ry="1.8"/>
</g>
<!-- va3&#45;&gt;va4 -->
<g id="edge52" class="edge"><title>va3&#45;&gt;va4</title>
<path fill="none" stroke="black" d="M372,-507.957C372,-501.297 372,-480.278 372,-473.871"/>
</g>
<!-- ns2 -->
<g id="node26" class="node"><title>ns2</title>
<polygon fill="none" stroke="black" points="651,-490 439,-490 439,-454 651,-454 651,-490"/>
<text text-anchor="middle" x="545" y="-468.9" font-family="Times Roman,serif" font-size="14.00">select arpopriate nova&#45;volume node</text>
</g>
<!-- ns1&#45;&gt;ns2 -->
<g id="edge55" class="edge"><title>ns1&#45;&gt;ns2</title>
<path fill="none" stroke="black" d="M545,-507.957C545,-504.504 545,-497.19 545,-490.054"/>
</g>
<!-- va4&#45;&gt;na2 -->
<g id="edge17" class="edge"><title>va4&#45;&gt;na2</title>
<path fill="none" stroke="black" d="M370.012,-472C356.855,-472 281.936,-472 252.18,-472"/>
<polygon fill="black" stroke="black" points="251.866,-468.5 241.866,-472 251.866,-475.5 251.866,-468.5"/>
<text text-anchor="middle" x="306" y="-478.4" font-family="Times Roman,serif" font-size="14.00">db volume instance</text>
</g>
<!-- na2&#45;&gt;cl3 -->
<g id="edge19" class="edge"><title>na2&#45;&gt;cl3</title>
<path fill="none" stroke="black" d="M238.016,-472C221.886,-472 111.892,-472 74.4499,-472"/>
<polygon fill="black" stroke="black" points="73.9991,-468.5 63.999,-472 73.999,-475.5 73.9991,-468.5"/>
<text text-anchor="middle" x="151" y="-478.4" font-family="Times Roman,serif" font-size="14.00">200 OK with volume details</text>
</g>
<!-- ns3 -->
<g id="node28" class="node"><title>ns3</title>
<ellipse fill="black" stroke="black" cx="545" cy="-434" rx="1.8" ry="1.8"/>
</g>
<!-- ns2&#45;&gt;ns3 -->
<g id="edge56" class="edge"><title>ns2&#45;&gt;ns3</title>
<path fill="none" stroke="black" d="M545,-453.89C545,-446.856 545,-439.658 545,-436.166"/>
</g>
<!-- ns3&#45;&gt;vm1 -->
<g id="edge22" class="edge"><title>ns3&#45;&gt;vm1</title>
<path fill="none" stroke="black" stroke-dasharray="5,2" d="M546.943,-434C562.611,-434 668.695,-434 705.474,-434"/>
<polygon fill="black" stroke="black" points="705.844,-437.5 715.844,-434 705.844,-430.5 705.844,-437.5"/>
<text text-anchor="middle" x="632" y="-440.4" font-family="Times Roman,serif" font-size="14.00">cast create_volume method</text>
</g>
<!-- vm2 -->
<g id="node31" class="node"><title>vm2</title>
<polygon fill="none" stroke="black" points="781,-414 655,-414 655,-378 781,-378 781,-414"/>
<text text-anchor="middle" x="718" y="-392.9" font-family="Times Roman,serif" font-size="14.00">bind volume to host</text>
</g>
<!-- vm1&#45;&gt;vm2 -->
<g id="edge59" class="edge"><title>vm1&#45;&gt;vm2</title>
<path fill="none" stroke="black" d="M718,-431.957C718,-428.504 718,-421.19 718,-414.054"/>
</g>
<!-- vm3 -->
<g id="node33" class="node"><title>vm3</title>
<ellipse fill="black" stroke="black" cx="718" cy="-358" rx="1.8" ry="1.8"/>
</g>
<!-- vm2&#45;&gt;vm3 -->
<g id="edge60" class="edge"><title>vm2&#45;&gt;vm3</title>
<path fill="none" stroke="black" d="M718,-377.89C718,-370.856 718,-363.658 718,-360.166"/>
</g>
<!-- vm3&#45;&gt;vd1 -->
<g id="edge25" class="edge"><title>vm3&#45;&gt;vd1</title>
<path fill="none" stroke="black" d="M719.866,-358C732.692,-358 808.18,-358 837.944,-358"/>
<polygon fill="black" stroke="black" points="838.012,-361.5 848.012,-358 838.012,-354.5 838.012,-361.5"/>
<text text-anchor="middle" x="784" y="-364.4" font-family="Times Roman,serif" font-size="14.00">create_volume()</text>
</g>
<!-- vm4 -->
<g id="node49" class="node"><title>vm4</title>
<ellipse fill="black" stroke="black" cx="718" cy="-282" rx="1.8" ry="1.8"/>
</g>
<!-- vm3&#45;&gt;vm4 -->
<g id="edge61" class="edge"><title>vm3&#45;&gt;vm4</title>
<path fill="none" stroke="black" d="M718,-356.121C718,-345.607 718,-294.156 718,-283.813"/>
</g>
<!-- vd2 -->
<g id="node44" class="node"><title>vd2</title>
<ellipse fill="black" stroke="black" cx="850" cy="-320" rx="1.8" ry="1.8"/>
</g>
<!-- vd1&#45;&gt;vd2 -->
<g id="edge68" class="edge"><title>vd1&#45;&gt;vd2</title>
<path fill="none" stroke="black" d="M850,-355.957C850,-349.297 850,-328.278 850,-321.871"/>
</g>
<!-- vm5 -->
<g id="node36" class="node"><title>vm5</title>
<polygon fill="none" stroke="black" points="789,-262 647,-262 647,-226 789,-226 789,-262"/>
<text text-anchor="middle" x="718" y="-240.9" font-family="Times Roman,serif" font-size="14.00">update DB if necessary</text>
</g>
<!-- vm6 -->
<g id="node38" class="node"><title>vm6</title>
<ellipse fill="black" stroke="black" cx="718" cy="-206" rx="1.8" ry="1.8"/>
</g>
<!-- vm5&#45;&gt;vm6 -->
<g id="edge63" class="edge"><title>vm5&#45;&gt;vm6</title>
<path fill="none" stroke="black" d="M718,-225.89C718,-218.856 718,-211.658 718,-208.166"/>
</g>
<!-- vd4 -->
<g id="node40" class="node"><title>vd4</title>
<ellipse fill="black" stroke="black" cx="850" cy="-206" rx="1.8" ry="1.8"/>
</g>
<!-- vm6&#45;&gt;vd4 -->
<g id="edge28" class="edge"><title>vm6&#45;&gt;vd4</title>
<path fill="none" stroke="black" d="M719.866,-206C732.692,-206 808.18,-206 837.944,-206"/>
<polygon fill="black" stroke="black" points="838.012,-209.5 848.012,-206 838.012,-202.5 838.012,-209.5"/>
<text text-anchor="middle" x="784" y="-212.4" font-family="Times Roman,serif" font-size="14.00">create_export()</text>
</g>
<!-- vm7 -->
<g id="node58" class="node"><title>vm7</title>
<ellipse fill="black" stroke="black" cx="718" cy="-56" rx="1.8" ry="1.8"/>
</g>
<!-- vm6&#45;&gt;vm7 -->
<g id="edge64" class="edge"><title>vm6&#45;&gt;vm7</title>
<path fill="none" stroke="black" d="M718,-203.88C718,-186.93 718,-73.6809 718,-57.8391"/>
</g>
<!-- vd5 -->
<g id="node50" class="node"><title>vd5</title>
<polygon fill="none" stroke="black" points="933,-186 767,-186 767,-140 933,-140 933,-186"/>
<text text-anchor="middle" x="850" y="-169.4" font-family="Times Roman,serif" font-size="14.00">allocate iSCSI target in DB</text>
<text text-anchor="middle" x="850" y="-150.4" font-family="Times Roman,serif" font-size="14.00">prepare iSCSI properties</text>
</g>
<!-- vd4&#45;&gt;vd5 -->
<g id="edge71" class="edge"><title>vd4&#45;&gt;vd5</title>
<path fill="none" stroke="black" d="M850,-204.152C850,-200.873 850,-193.674 850,-186.199"/>
</g>
<!-- vm8 -->
<g id="node41" class="node"><title>vm8</title>
<polygon fill="none" stroke="black" points="789,-36 647,-36 647,-1.77636e-14 789,-3.55271e-15 789,-36"/>
<text text-anchor="middle" x="718" y="-14.9" font-family="Times Roman,serif" font-size="14.00">update DB if necessary</text>
</g>
<!-- os2 -->
<g id="node52" class="node"><title>os2</title>
<polygon fill="none" stroke="black" points="1011,-122 937,-122 937,-76 1011,-76 1011,-122"/>
<text text-anchor="middle" x="974" y="-105.4" font-family="Times Roman,serif" font-size="14.00">new target</text>
<text text-anchor="middle" x="974" y="-86.4" font-family="Times Roman,serif" font-size="14.00">new LUN</text>
</g>
<!-- os1&#45;&gt;os2 -->
<g id="edge76" class="edge"><title>os1&#45;&gt;os2</title>
<path fill="none" stroke="black" d="M974,-301.915C974,-262.019 974,-166.505 974,-122.245"/>
</g>
<!-- vd2&#45;&gt;os1 -->
<g id="edge31" class="edge"><title>vd2&#45;&gt;os1</title>
<path fill="none" stroke="black" d="M862.107,-320C886.367,-320 910.627,-320 934.887,-320"/>
<polygon fill="black" stroke="black" points="861.938,-316.5 851.938,-320 861.937,-323.5 861.938,-316.5"/>
<polygon fill="black" stroke="black" points="934.915,-323.5 944.915,-320 934.915,-316.5 934.915,-323.5"/>
</g>
<!-- vd3 -->
<g id="node47" class="node"><title>vd3</title>
<ellipse fill="black" stroke="black" cx="850" cy="-282" rx="1.8" ry="1.8"/>
</g>
<!-- vd2&#45;&gt;vd3 -->
<g id="edge69" class="edge"><title>vd2&#45;&gt;vd3</title>
<path fill="none" stroke="black" d="M850,-317.957C850,-311.297 850,-290.278 850,-283.871"/>
</g>
<!-- vd3&#45;&gt;vd4 -->
<g id="edge70" class="edge"><title>vd3&#45;&gt;vd4</title>
<path fill="none" stroke="black" d="M850,-280.121C850,-269.607 850,-218.156 850,-207.813"/>
</g>
<!-- vd3&#45;&gt;vm4 -->
<g id="edge34" class="edge"><title>vd3&#45;&gt;vm4</title>
<path fill="none" stroke="black" stroke-dasharray="1,5" d="M848.012,-282C834.855,-282 759.936,-282 730.18,-282"/>
<polygon fill="black" stroke="black" points="729.866,-278.5 719.866,-282 729.866,-285.5 729.866,-278.5"/>
<text text-anchor="middle" x="784" y="-307.4" font-family="Times Roman,serif" font-size="14.00">volume DB update</text>
<text text-anchor="middle" x="784" y="-288.4" font-family="Times Roman,serif" font-size="14.00">(empty for LVM)</text>
</g>
<!-- vm4&#45;&gt;vm5 -->
<g id="edge62" class="edge"><title>vm4&#45;&gt;vm5</title>
<path fill="none" stroke="black" d="M718,-279.957C718,-276.504 718,-269.19 718,-262.054"/>
</g>
<!-- vd6 -->
<g id="node53" class="node"><title>vd6</title>
<ellipse fill="black" stroke="black" cx="850" cy="-99" rx="1.8" ry="1.8"/>
</g>
<!-- vd5&#45;&gt;vd6 -->
<g id="edge72" class="edge"><title>vd5&#45;&gt;vd6</title>
<path fill="none" stroke="black" d="M850,-139.895C850,-124.713 850,-106.631 850,-100.864"/>
</g>
<!-- vd6&#45;&gt;os2 -->
<g id="edge37" class="edge"><title>vd6&#45;&gt;os2</title>
<path fill="none" stroke="black" d="M862.215,-99C883.68,-99 905.145,-99 926.611,-99"/>
<polygon fill="black" stroke="black" points="861.938,-95.5001 851.938,-99 861.937,-102.5 861.938,-95.5001"/>
<polygon fill="black" stroke="black" points="926.809,-102.5 936.809,-99 926.809,-95.5001 926.809,-102.5"/>
</g>
<!-- vd7 -->
<g id="node56" class="node"><title>vd7</title>
<ellipse fill="black" stroke="black" cx="850" cy="-56" rx="1.8" ry="1.8"/>
</g>
<!-- vd6&#45;&gt;vd7 -->
<g id="edge73" class="edge"><title>vd6&#45;&gt;vd7</title>
<path fill="none" stroke="black" d="M850,-97.1523C850,-90.2079 850,-65.6853 850,-58.1915"/>
</g>
<!-- vd7&#45;&gt;vm7 -->
<g id="edge40" class="edge"><title>vd7&#45;&gt;vm7</title>
<path fill="none" stroke="black" d="M848.012,-56C834.855,-56 759.936,-56 730.18,-56"/>
<polygon fill="black" stroke="black" points="729.866,-52.5001 719.866,-56 729.866,-59.5001 729.866,-52.5001"/>
<text text-anchor="middle" x="784" y="-62.4" font-family="Times Roman,serif" font-size="14.00">provider_location</text>
</g>
<!-- vm7&#45;&gt;vm8 -->
<g id="edge65" class="edge"><title>vm7&#45;&gt;vm8</title>
<path fill="none" stroke="black" d="M718,-53.957C718,-50.5038 718,-43.1897 718,-36.0541"/>
</g>
</g>
</svg>
